<svg width="116" height="37" viewBox="0 0 116 37" fill="none" xmlns="http://www.w3.org/2000/svg">
<g id="Visa">
<path id="visa-logo" fill-rule="evenodd" clip-rule="evenodd" d="M29.4448 36.3943H19.4983L12.0396 7.93899C11.6856 6.63004 10.9339 5.47286 9.82818 4.92747C7.06876 3.55687 4.02806 2.46608 0.710938 1.91595V0.820419H16.734C18.9454 0.820419 20.604 2.46608 20.8804 4.37733L24.7504 24.9031L34.6921 0.820419H44.3622L29.4448 36.3943ZM49.8907 36.3943H40.497L48.2322 0.820419H57.6258L49.8907 36.3943ZM69.779 10.6755C70.0554 8.75949 71.714 7.66396 73.6489 7.66396C76.6896 7.38889 80.0019 7.93903 82.7662 9.30488L84.4248 1.64566C81.6605 0.550136 78.6198 0 75.8604 0C66.7431 0 60.1089 4.92751 60.1089 11.7663C60.1089 16.9688 64.8081 19.7006 68.1252 21.3462C71.714 22.9871 73.0961 24.0827 72.8197 25.7236C72.8197 28.185 70.0554 29.2805 67.296 29.2805C63.9788 29.2805 60.6617 28.46 57.6259 27.0894L55.9673 34.7534C59.2844 36.1193 62.8731 36.6694 66.1903 36.6694C76.4132 36.9397 82.7662 32.017 82.7662 24.6281C82.7662 15.3232 69.779 14.7778 69.779 10.6755ZM115.642 36.3943L108.183 0.820419H100.171C98.5128 0.820419 96.8543 1.91595 96.3014 3.55687L82.4897 36.3943H92.1598L94.09 31.1964H105.972L107.077 36.3943H115.642ZM101.553 10.4003L104.313 23.8075H96.5778L101.553 10.4003Z" fill="#172B85"/>
</g>
</svg>
